<?xml version="1.0" encoding="iso-8859-1"?>
<!-- Generator: Adobe Illustrator 19.0.0, SVG Export Plug-In . SVG Version: 6.00 Build 0)  -->
<svg version="1.1" id="Capa_1" xmlns="http://www.w3.org/2000/svg" xmlns:xlink="http://www.w3.org/1999/xlink" x="0px" y="0px"
	 viewBox="0 0 512 512" style="enable-background:new 0 0 512 512;" xml:space="preserve">
<path style="fill:#FFDECF;" d="M447.67,294.402c-13.633,4.02-51.705,13.042-73.918,13.042c-20.828,0-44.584-7.798-53.832-12.396
	c0,0-25.783,26.872-26.42,26.703v22.779c0,48.232,39.252,87.472,87.5,87.472s87.5-39.239,87.5-87.472v-22.936
	c-0.002,0-0.002,0.001-0.004,0.001C465.324,322.022,447.67,294.402,447.67,294.402z"/>
<path style="fill:#5D9CEC;" d="M461,437.003h-22.486H431H301.002c-20.678,0-37.5,16.822-37.5,37.5V504.5c0,4.143,3.357,7.5,7.5,7.5
	h219.996c4.143,0,7.5-3.357,7.5-7.5v-29.958c0-0.014,0.002-0.025,0.002-0.039C498.5,453.825,481.678,437.003,461,437.003z"/>
<path style="fill:#4A89DC;" d="M461,437.003h-22.486H431h-0.004c20.678,0,37.502,16.822,37.502,37.5
	c0,0.014-0.002,0.025-0.002,0.039V504.5c0,4.143-3.357,7.5-7.5,7.5h30.002c4.143,0,7.5-3.357,7.5-7.5v-29.958
	c0-0.014,0.002-0.025,0.002-0.039C498.5,453.825,481.678,437.003,461,437.003z"/>
<path style="fill:#A0D468;" d="M220.999,194.998c-1.479,0-2.947-0.438-4.206-1.29c-2.061-1.395-3.295-3.722-3.295-6.21v-12.484
	h-32.501c-4.142,0-7.5-3.357-7.5-7.5V7.5c0-4.143,3.358-7.5,7.5-7.5h190c4.143,0,7.5,3.357,7.5,7.5v160.014
	c0,4.143-3.357,7.5-7.5,7.5h-98.555l-48.662,19.449C222.884,194.821,221.94,194.998,220.999,194.998z"/>
<path style="fill:#8CC152;" d="M370.998,0h-30.002c4.143,0,7.5,3.357,7.5,7.5v160.014c0,4.143-3.357,7.5-7.5,7.5h30.002
	c4.143,0,7.5-3.357,7.5-7.5V7.5C378.498,3.357,375.141,0,370.998,0z"/>
<path style="fill:#AC92EC;" d="M211,427.002h-15.5H171H51c-20.678,0-37.5,16.822-37.5,37.5V504.5c0,4.143,3.358,7.5,7.5,7.5h219.998
	c4.142,0,7.5-3.357,7.5-7.5v-39.959c0-0.014,0.002-0.025,0.002-0.039C248.5,443.824,231.677,427.002,211,427.002z"/>
<path style="fill:#967ADC;" d="M211,427.002h-15.5h-14.503c20.678,0,37.5,16.822,37.5,37.5c0,0.014-0.002,0.025-0.002,0.039V504.5
	c0,4.143-3.358,7.5-7.5,7.5h30.003c4.142,0,7.5-3.357,7.5-7.5v-39.959c0-0.014,0.002-0.025,0.002-0.039
	C248.5,443.824,231.677,427.002,211,427.002z"/>
<path style="fill:#FFDECF;" d="M91.491,282.642c0,0-45.821,19.618-47.992,18.396v43.493c0,48.232,39.253,87.472,87.5,87.472
	c48.248,0,87.5-39.239,87.5-87.472v-16.528L91.491,282.642z"/>
<path style="fill:#656D78;" d="M212.742,225.165c-14.041-17.173-33.342-25.88-57.368-25.88c-28.005,0-54.248,12.031-63.574,16.814
	l-17.576-8.368c-2.232-1.064-4.844-0.958-6.981,0.28c-3.013,1.744-29.302,24.932-23.743,93.025
	c2.171,1.223,47.992-18.396,47.992-18.396l136.986,48.924c0.82,0.293,1.673,0.437,2.522,0.437c1.527,0,3.04-0.467,4.321-1.369
	c1.994-1.405,3.18-3.691,3.18-6.131C238.5,279.491,229.834,246.068,212.742,225.165z"/>
<path style="fill:#515760;" d="M212.742,225.165c-14.041-17.173-33.342-25.88-57.368-25.88c-5.292,0-10.521,0.431-15.585,1.16
	c17.428,2.869,31.842,11.133,42.95,24.72c17.082,20.892,25.748,54.29,25.757,99.265l19.981,7.136
	c0.82,0.293,1.673,0.437,2.522,0.437c1.527,0,3.04-0.467,4.321-1.369c1.994-1.405,3.18-3.691,3.18-6.131
	C238.5,279.491,229.834,246.068,212.742,225.165z"/>
<path style="fill:#FFCDBE;" d="M188.493,317.285c0.001,0.025,0.004,0.049,0.004,0.074v27.171c0,43.12-31.374,79.048-72.499,86.181
	c4.876,0.846,9.887,1.291,15.001,1.291c48.248,0,87.5-39.239,87.5-87.472v-16.528L188.493,317.285z"/>
<path style="fill:#E6E9ED;" d="M351,512h-49.998c-4.143,0-7.5-3.357-7.5-7.5v-19.999c0-4.143,3.357-7.5,7.5-7.5H351
	c4.143,0,7.5,3.357,7.5,7.5V504.5C358.5,508.643,355.143,512,351,512z"/>
<g>
	<path style="fill:#656D78;" d="M308.498,62.495c0-17.921-14.58-32.5-32.5-32.5c-17.922,0-32.5,14.579-32.5,32.5
		c0,4.143,3.358,7.5,7.5,7.5s7.5-3.357,7.5-7.5c0-9.649,7.85-17.5,17.5-17.5c9.648,0,17.5,7.851,17.5,17.5s-7.852,17.5-17.5,17.5
		c-4.143,0-7.5,3.357-7.5,7.5v20.001c0,4.143,3.357,7.5,7.5,7.5s7.5-3.357,7.5-7.5V94.111
		C297.813,90.716,308.498,77.834,308.498,62.495z"/>
	<path style="fill:#656D78;" d="M275.998,119.996c-4.143,0-7.5,3.357-7.5,7.5v10c0,4.143,3.357,7.5,7.5,7.5s7.5-3.357,7.5-7.5v-10
		C283.498,123.354,280.141,119.996,275.998,119.996z"/>
</g>
<path style="fill:#965353;" d="M460.498,250.788c-7.043-8.592-15.773-11.867-21.998-13.092v-33.194c0-4.143-3.357-7.5-7.5-7.5
	c-2.846,0-5.762-0.016-8.73-0.031c-3.103-0.017-6.264-0.033-9.461-0.033c-36.182,0-76.803,2.289-100.932,29.622
	c-17.373,19.679-23.393,55.067-18.377,95.191c0.637,0.169,26.42-26.703,26.42-26.703c9.248,4.599,33.004,12.396,53.832,12.396
	c22.213,0,60.285-9.022,73.918-13.042c0,0,17.654,27.619,20.826,27.192C474.414,292.006,471.699,264.452,460.498,250.788z"/>
<g>
	<path style="fill:#864B4C;" d="M460.498,250.788c-7.043-8.592-15.773-11.867-21.998-13.092v-33.194c0-4.143-3.357-7.5-7.5-7.5
		c-2.846,0-5.762-0.016-8.73-0.031c-3.103-0.017-6.264-0.033-9.461-0.033c-3.68,0-7.406,0.026-11.156,0.098
		c3.836,0.333,6.844,3.546,6.844,7.467c0,0,0,20.222,0,33.194c0,12.973,14.955,9.215,21.998,17.807c7.881,9.612,8.57,22.158,8,41.39
		c2.395-0.633,7.469-1.986,9.176-2.49c0,0,17.654,27.619,20.826,27.192C474.414,292.006,471.699,264.452,460.498,250.788z"/>
	<path style="fill:#864B4C;" d="M447.672,294.405l-0.002-0.003C447.365,294.492,447.508,294.453,447.672,294.405z"/>
</g>
<path style="fill:#FFDECF;" d="M438.492,321.595c0.002,0,0.002-10.393,0.002-24.702c-0.258,0.066-0.508,0.131-0.771,0.197
	c0.092,14.303,0.184,24.678,0.273,24.652C438.164,321.698,438.33,321.65,438.492,321.595z"/>
<path style="fill:#FFCDBE;" d="M447.67,294.402c-2.379,0.701-5.518,1.558-9.172,2.49h-0.002v47.638
	c0,43.12-31.373,79.048-72.498,86.181c0.002,0,0.004,0,0.006,0.001c2.361,0.409,4.756,0.72,7.176,0.936
	c0.139,0.013,0.277,0.025,0.414,0.037c1.127,0.096,2.258,0.169,3.395,0.221c0.172,0.008,0.346,0.014,0.518,0.02
	c1.158,0.047,2.322,0.076,3.494,0.076c48.248,0,87.5-39.239,87.5-87.472v-22.936c-0.002,0-0.002,0.001-0.004,0.001
	C465.324,322.022,447.67,294.402,447.67,294.402z"/>
<path style="fill:#E6E9ED;" d="M381,432.002c-21.99,0-42.109-8.154-57.498-21.593v24.093c0,0.017,0.002,0.035,0.002,0.053
	c0.002,0.147,0.014,0.295,0.023,0.441c0.006,0.104,0.008,0.209,0.02,0.311c0.012,0.107,0.031,0.211,0.047,0.316
	c0.127,0.836,0.385,1.627,0.762,2.349c0.201,0.386,0.441,0.754,0.713,1.104c0.051,0.066,0.098,0.136,0.15,0.2
	c0.068,0.083,0.145,0.16,0.219,0.24c0.094,0.104,0.184,0.211,0.283,0.309c0.061,0.06,0.125,0.113,0.188,0.17
	c0.123,0.114,0.246,0.229,0.377,0.334c0.012,0.009,0.021,0.02,0.033,0.029l25.006,19.996c0.066,0.053,0.141,0.088,0.207,0.139
	c0.213,0.157,0.43,0.303,0.654,0.437c0.137,0.081,0.271,0.16,0.41,0.231c0.215,0.109,0.436,0.203,0.658,0.291
	c0.148,0.059,0.295,0.123,0.447,0.172c0.246,0.08,0.5,0.137,0.754,0.191c0.127,0.027,0.252,0.065,0.379,0.086
	c0.387,0.062,0.779,0.098,1.176,0.098c0.262,0,0.523-0.018,0.787-0.045c0.045-0.006,0.092-0.015,0.139-0.021
	c0.205-0.025,0.41-0.059,0.617-0.102c0.084-0.018,0.166-0.04,0.25-0.061c0.162-0.04,0.322-0.084,0.483-0.136
	c0.105-0.033,0.209-0.069,0.313-0.107c0.064-0.023,0.131-0.041,0.195-0.067l21.865-8.746l17.002,8.492
	c0.115,0.058,0.234,0.099,0.35,0.15c0.137,0.059,0.27,0.123,0.406,0.174c0.188,0.069,0.377,0.122,0.566,0.175
	c0.09,0.025,0.18,0.059,0.271,0.08c0.266,0.064,0.531,0.111,0.799,0.146c0.022,0.002,0.043,0.008,0.065,0.012
	c0.297,0.035,0.594,0.055,0.889,0.055c0.352,0,0.701-0.026,1.049-0.075c0.15-0.022,0.301-0.064,0.451-0.095
	c0.191-0.039,0.385-0.072,0.572-0.125c0.152-0.045,0.301-0.107,0.451-0.16c0.188-0.067,0.373-0.131,0.555-0.211
	c0.131-0.061,0.26-0.134,0.389-0.201c0.195-0.102,0.389-0.205,0.576-0.324c0.039-0.026,0.084-0.043,0.123-0.07l29.988-19.996
	c0.004-0.002,0.008-0.006,0.012-0.008c0.189-0.127,0.371-0.264,0.547-0.407c0.166-0.133,0.32-0.274,0.471-0.419
	c0.037-0.035,0.078-0.067,0.115-0.104c0.137-0.139,0.266-0.284,0.391-0.432c0.031-0.036,0.066-0.07,0.096-0.107
	c0.113-0.136,0.215-0.278,0.316-0.421c0.039-0.057,0.084-0.109,0.121-0.167c0.082-0.123,0.156-0.25,0.23-0.377
	c0.051-0.086,0.103-0.169,0.15-0.256c0.055-0.102,0.102-0.208,0.15-0.311c0.057-0.118,0.117-0.235,0.166-0.356
	c0.035-0.081,0.061-0.164,0.09-0.246c0.057-0.146,0.113-0.293,0.158-0.445c0.021-0.07,0.037-0.143,0.057-0.215
	c0.043-0.162,0.088-0.323,0.121-0.489c0.027-0.13,0.041-0.261,0.06-0.392c0.016-0.108,0.037-0.215,0.049-0.325
	c0.025-0.249,0.037-0.501,0.039-0.753v-0.006l0.012-24.109C423.121,423.843,402.996,432.002,381,432.002z"/>
<path style="fill:#FFDECF;" d="M131,432.002c-17.498,0-33.811-5.165-47.5-14.045v16.545v0.001
	c0.001,26.19,21.309,47.498,47.5,47.498c26.188,0,47.495-21.304,47.5-47.49v-0.005l0.009-16.555
	C164.819,426.834,148.502,432.002,131,432.002z"/>
<g>
</g>
<g>
</g>
<g>
</g>
<g>
</g>
<g>
</g>
<g>
</g>
<g>
</g>
<g>
</g>
<g>
</g>
<g>
</g>
<g>
</g>
<g>
</g>
<g>
</g>
<g>
</g>
<g>
</g>
</svg>
