<?xml version="1.0" encoding="iso-8859-1"?>
<!-- Generator: Adobe Illustrator 19.0.0, SVG Export Plug-In . SVG Version: 6.00 Build 0)  -->
<svg version="1.1" id="Capa_1" xmlns="http://www.w3.org/2000/svg" xmlns:xlink="http://www.w3.org/1999/xlink" x="0px" y="0px"
	 viewBox="0 0 463.83 463.83" style="enable-background:new 0 0 463.83 463.83;" xml:space="preserve">
<path style="fill:#29ABE2;" d="M359.855,311.93h8c53.019-0.014,95.989-43.005,95.975-96.025
	c-0.014-53.019-43.005-95.989-96.025-95.975c-6.593,0.002-13.169,0.683-19.622,2.032c-16.515-68.7-85.596-111.004-154.296-94.488
	C136.364,41.302,95.825,92.768,95.855,151.93c0,0.544,0.072,1.072,0.08,1.6c-43.299-8.792-85.527,19.182-94.319,62.481
	s19.182,85.527,62.481,94.319c5.187,1.053,10.465,1.589,15.758,1.6H359.855z"/>
<g>
	<path style="fill:#F8CF26;" d="M223.855,295.93h-16v-184c0-4.418,3.582-8,8-8h64v16h-56V295.93z"/>
	<path style="fill:#F8CF26;" d="M279.855,295.93h-16v-104c0-4.418,3.582-8,8-8h104v16h-96V295.93z"/>
	<path style="fill:#F8CF26;" d="M167.855,295.93h-16v-72h-56v-16h64c4.418,0,8,3.582,8,8V295.93z"/>
</g>
<rect x="127.855" y="335.93" style="fill:#B3B3B3;" width="208" height="48"/>
<g>
	<rect x="103.855" y="279.93" style="fill:#666666;" width="256" height="64"/>
	<polygon style="fill:#666666;" points="151.855,439.93 103.855,439.93 103.855,375.93 359.855,375.93 359.855,439.93 
		311.855,439.93 	"/>
</g>
<g>
	<rect x="127.855" y="303.93" style="fill:#FBB03B;" width="16" height="16"/>
	<rect x="159.855" y="303.93" style="fill:#FBB03B;" width="16" height="16"/>
	<rect x="127.855" y="399.93" style="fill:#FBB03B;" width="16" height="16"/>
	<rect x="159.855" y="399.93" style="fill:#FBB03B;" width="16" height="16"/>
</g>
<g>
	<circle style="fill:#F7931E;" cx="279.855" cy="111.93" r="16"/>
	<circle style="fill:#F7931E;" cx="375.855" cy="191.93" r="16"/>
	<circle style="fill:#F7931E;" cx="95.855" cy="215.93" r="16"/>
</g>
<g>
</g>
<g>
</g>
<g>
</g>
<g>
</g>
<g>
</g>
<g>
</g>
<g>
</g>
<g>
</g>
<g>
</g>
<g>
</g>
<g>
</g>
<g>
</g>
<g>
</g>
<g>
</g>
<g>
</g>
</svg>
