<?xml version="1.0" encoding="iso-8859-1"?>
<!-- Generator: Adobe Illustrator 19.0.0, SVG Export Plug-In . SVG Version: 6.00 Build 0)  -->
<svg version="1.1" id="Capa_1" xmlns="http://www.w3.org/2000/svg" xmlns:xlink="http://www.w3.org/1999/xlink" x="0px" y="0px"
	 viewBox="0 0 512 512" style="enable-background:new 0 0 512 512;" xml:space="preserve">
<path style="fill:#FFB74F;" d="M446.924,146.864v237.593h-74.107v-14.993h-54.246v-0.01c0-34.534-28.007-62.552-62.552-62.562
	c-0.01,0-0.01,0-0.02,0c-34.555,0-62.572,28.017-62.572,62.562v0.01h-35.954v14.993H65.076V146.864L256,0l0.02,0.02L446.924,146.864
	z"/>
<path style="fill:#FF9A00;" d="M446.924,146.864v237.593h-74.107v-14.993h-54.246v-0.01c0-34.534-28.007-62.552-62.552-62.562V0.02
	L446.924,146.864z"/>
<path style="fill:#78777F;" d="M386.271,435.654l17.252-77.065l-33.675-7.537c-0.93-7.437-2.579-14.723-4.938-21.81l26.648-21.35
	l-49.368-61.642l-26.468,21.2c-6.527-3.988-13.404-7.297-20.581-9.896v-33.665h-78.975v33.905
	c-7.657,2.829-14.963,6.477-21.87,10.895l-26.728-20.771l-48.468,62.362l27.258,21.18c-2.199,7.077-3.698,14.344-4.478,21.74
	l-33.575,8.036l18.382,76.805l34.285-8.206c4.048,5.977,8.636,11.535,13.744,16.653l-15.003,31.836L231.151,512l15.173-32.186
	c3.239,0.28,6.477,0.42,9.696,0.42c3.908,0,7.797-0.2,11.675-0.6l15.543,31.766l70.938-34.714l-15.483-31.656
	c5.038-5.228,9.556-10.905,13.514-16.992L386.271,435.654z M311.945,365.466c-0.01,30.896-25.039,55.925-55.925,55.935
	c-0.01,0-0.01,0-0.02,0c-30.896,0-55.935-25.029-55.945-55.935v-0.01c0-30.886,25.049-55.935,55.945-55.935c0.01,0,0.01,0,0.02,0
	c30.886,0.01,55.925,25.059,55.925,55.935V365.466z"/>
<polygon style="fill:#0088FF;" points="492.994,182.318 474.712,206.087 256.02,37.853 256,37.833 37.288,206.087 19.006,182.318 
	256,0 256.02,0.02 "/>
<path style="fill:#3C3A41;" d="M352.207,428.038c-3.958,6.087-8.476,11.765-13.514,16.992l15.483,31.656L283.238,511.4
	l-15.543-31.766c-3.878,0.4-7.766,0.6-11.675,0.6v-58.834c30.886-0.01,55.915-25.039,55.925-55.935v-0.01
	c0-30.876-25.039-55.925-55.925-55.935v-85.632h39.122v33.665c7.177,2.599,14.054,5.907,20.581,9.896l26.468-21.2l49.368,61.642
	l-26.648,21.35c2.359,7.087,4.008,14.374,4.938,21.81l33.675,7.537l-17.252,77.065L352.207,428.038z"/>
<polygon style="fill:#005ED3;" points="492.994,182.318 474.712,206.087 256.02,37.853 256.02,0.02 "/>
<g>
</g>
<g>
</g>
<g>
</g>
<g>
</g>
<g>
</g>
<g>
</g>
<g>
</g>
<g>
</g>
<g>
</g>
<g>
</g>
<g>
</g>
<g>
</g>
<g>
</g>
<g>
</g>
<g>
</g>
</svg>
