<?xml version="1.0" encoding="iso-8859-1"?>
<!-- Generator: Adobe Illustrator 19.0.0, SVG Export Plug-In . SVG Version: 6.00 Build 0)  -->
<svg version="1.1" id="Capa_1" xmlns="http://www.w3.org/2000/svg" xmlns:xlink="http://www.w3.org/1999/xlink" x="0px" y="0px"
	 viewBox="0 0 512 512" style="enable-background:new 0 0 512 512;" xml:space="preserve">
<g>
	<rect x="194.207" y="414.897" style="fill:#7F8C8D;" width="35.31" height="70.621"/>
	<polygon style="fill:#35495E;" points="370.759,320.265 370.759,256 52.966,256 52.966,326.621 	"/>
	<path style="fill:#95A5A5;" d="M17.655,317.793h388.414c9.751,0,17.655,7.905,17.655,17.655v70.621
		c0,9.751-7.904,17.655-17.655,17.655H17.655C7.904,423.724,0,415.82,0,406.069v-70.621C0,325.698,7.904,317.793,17.655,317.793z"/>
	<circle style="fill:#FF5364;" cx="52.966" cy="370.759" r="17.655"/>
	<g>
		<path style="fill:#F0C419;" d="M123.586,379.586h-17.655c-4.875,0-8.828-3.952-8.828-8.828s3.952-8.828,8.828-8.828h17.655
			c4.875,0,8.828,3.952,8.828,8.828S128.462,379.586,123.586,379.586z"/>
		<path style="fill:#F0C419;" d="M176.552,379.586h-17.655c-4.875,0-8.828-3.952-8.828-8.828s3.952-8.828,8.828-8.828h17.655
			c4.875,0,8.828,3.952,8.828,8.828S181.427,379.586,176.552,379.586z"/>
	</g>
	<polygon style="fill:#35495E;" points="370.759,161.368 370.759,97.103 52.966,97.103 52.966,167.724 	"/>
	<path style="fill:#95A5A5;" d="M17.655,158.897h388.414c9.751,0,17.655,7.904,17.655,17.655v70.621
		c0,9.751-7.904,17.655-17.655,17.655H17.655C7.904,264.828,0,256.923,0,247.172v-70.621C0,166.801,7.904,158.897,17.655,158.897z"
		/>
	<circle style="fill:#FF5364;" cx="52.966" cy="211.862" r="17.655"/>
	<g>
		<path style="fill:#F0C419;" d="M123.586,220.69h-17.655c-4.875,0-8.828-3.952-8.828-8.828c0-4.875,3.952-8.828,8.828-8.828h17.655
			c4.875,0,8.828,3.952,8.828,8.828C132.414,216.737,128.462,220.69,123.586,220.69z"/>
		<path style="fill:#F0C419;" d="M176.552,220.69h-17.655c-4.875,0-8.828-3.952-8.828-8.828c0-4.875,3.952-8.828,8.828-8.828h17.655
			c4.875,0,8.828,3.952,8.828,8.828C185.379,216.737,181.427,220.69,176.552,220.69z"/>
	</g>
	<path style="fill:#95A5A5;" d="M17.655,0h388.414c9.751,0,17.655,7.904,17.655,17.655v70.621c0,9.751-7.904,17.655-17.655,17.655
		H17.655C7.904,105.931,0,98.027,0,88.276V17.655C0,7.904,7.904,0,17.655,0z"/>
	<circle style="fill:#FF5364;" cx="52.966" cy="52.966" r="17.655"/>
	<g>
		<path style="fill:#F0C419;" d="M123.586,61.793h-17.655c-4.875,0-8.828-3.952-8.828-8.828s3.952-8.828,8.828-8.828h17.655
			c4.875,0,8.828,3.952,8.828,8.828S128.462,61.793,123.586,61.793z"/>
		<path style="fill:#F0C419;" d="M176.552,61.793h-17.655c-4.875,0-8.828-3.952-8.828-8.828s3.952-8.828,8.828-8.828h17.655
			c4.875,0,8.828,3.952,8.828,8.828S181.427,61.793,176.552,61.793z"/>
	</g>
	<path style="fill:#B0D3F0;" d="M414.897,512H8.828C3.952,512,0,508.048,0,503.172v-17.655c0-4.875,3.952-8.828,8.828-8.828h406.069
		V512z"/>
	<path style="fill:#46B29D;" d="M494.345,194.207c9.751,0,17.655,7.904,17.655,17.655v113.126c0,0,0,116.886-123.586,187.012
		c-123.586-70.126-123.586-187.012-123.586-187.012V211.862c0-9.751,7.904-17.655,17.655-17.655H494.345z"/>
	<path style="fill:#65DDB9;" d="M388.414,470.449c-87.208-59.445-88.276-144.561-88.276-145.47v-95.462H476.69v95.462
		C476.637,328.474,474.315,411.886,388.414,470.449z"/>
	<g>
		<path style="fill:#FFFFFF;" d="M388.414,479.276c-3.873,0.001-7.294-2.522-8.437-6.222s0.26-7.714,3.459-9.897
			c82.282-56.09,84.374-134.974,84.427-138.302v-86.51c-4.875,0-8.828-3.952-8.828-8.828s3.952-8.828,8.828-8.828
			c9.751,0,17.655,7.904,17.655,17.655v86.634c-0.053,3.84-2.375,91.577-92.134,152.761
			C391.919,478.74,390.187,479.275,388.414,479.276z"/>
		<path style="fill:#FFFFFF;" d="M335.448,428.367c-2.833,0.004-5.496-1.352-7.159-3.646c-21.661-29-34.5-63.631-36.979-99.743
			v-86.634c0-9.751,7.905-17.655,17.655-17.655h97.103c4.875,0,8.828,3.952,8.828,8.828s-3.952,8.828-8.828,8.828h-97.103v86.634
			c2.553,32.37,14.213,63.356,33.633,89.379c1.948,2.687,2.225,6.239,0.716,9.195C341.806,426.509,338.767,428.369,335.448,428.367z
			"/>
	</g>
	<path style="fill:#FF5364;" d="M369.655,370.759c-2.341,0-4.586-0.931-6.241-2.586l-16.552-16.552
		c-3.345-3.464-3.298-8.97,0.108-12.375c3.405-3.405,8.911-3.453,12.375-0.108l10.311,10.311l65.483-65.483
		c3.464-3.345,8.97-3.298,12.375,0.108c3.405,3.405,3.453,8.911,0.108,12.375l-71.724,71.724
		C374.241,369.828,371.996,370.758,369.655,370.759z"/>
</g>
<g>
</g>
<g>
</g>
<g>
</g>
<g>
</g>
<g>
</g>
<g>
</g>
<g>
</g>
<g>
</g>
<g>
</g>
<g>
</g>
<g>
</g>
<g>
</g>
<g>
</g>
<g>
</g>
<g>
</g>
</svg>
