<?xml version="1.0" encoding="iso-8859-1"?>
<!-- Generator: Adobe Illustrator 19.0.0, SVG Export Plug-In . SVG Version: 6.00 Build 0)  -->
<svg version="1.1" id="Capa_1" xmlns="http://www.w3.org/2000/svg" xmlns:xlink="http://www.w3.org/1999/xlink" x="0px" y="0px"
	 viewBox="0 0 512 512" style="enable-background:new 0 0 512 512;" xml:space="preserve">
<path style="fill:#80C9FF;" d="M287.894,64.634C270.28,64.634,256,78.914,256,96.529v318.943l256-31.894V64.634H287.894z"/>
<path style="fill:#CCF0FF;" d="M256,415.471V96.529c0-17.615-14.28-31.894-31.894-31.894H0v318.943L256,415.471z"/>
<g>
	<polygon style="fill:#114378;" points="399,278.21 399,203.79 336.158,203.79 336.158,233.79 369,233.79 369,278.21 
		336.158,278.21 336.158,308.21 431.842,308.21 431.842,278.21 	"/>
	<rect x="368.05" y="140" style="fill:#114378;" width="31.895" height="30"/>
</g>
<g>
	<rect x="47.816" y="113.42" style="fill:#80C9FF;" width="160.37" height="30"/>
	<rect x="47.816" y="177.21" style="fill:#80C9FF;" width="160.37" height="30"/>
	<rect x="47.816" y="241" style="fill:#80C9FF;" width="160.37" height="30"/>
	<rect x="47.816" y="304.79" style="fill:#80C9FF;" width="160.37" height="30"/>
</g>
<path style="fill:#4DB2FF;" d="M256,415.471l-10.008,16.194l10.008,15.7h256v-63.789H287.894
	C270.28,383.577,256,397.857,256,415.471z"/>
<path style="fill:#80C9FF;" d="M224.106,383.577H0v63.789h256v-31.894C256,397.857,241.72,383.577,224.106,383.577z"/>
<g>
</g>
<g>
</g>
<g>
</g>
<g>
</g>
<g>
</g>
<g>
</g>
<g>
</g>
<g>
</g>
<g>
</g>
<g>
</g>
<g>
</g>
<g>
</g>
<g>
</g>
<g>
</g>
<g>
</g>
</svg>
