<?xml version="1.0" encoding="iso-8859-1"?>
<!-- Generator: Adobe Illustrator 19.0.0, SVG Export Plug-In . SVG Version: 6.00 Build 0)  -->
<svg version="1.1" id="Capa_1" xmlns="http://www.w3.org/2000/svg" xmlns:xlink="http://www.w3.org/1999/xlink" x="0px" y="0px"
	 viewBox="0 0 491.52 491.52" style="enable-background:new 0 0 491.52 491.52;" xml:space="preserve">
<circle style="fill:#45B39C;" cx="245.76" cy="245.76" r="245.76"/>
<path style="opacity:0.1;enable-background:new    ;" d="M382.618,110.5c-2.918-3.38-7.27-5.53-12.083-5.53H233.626
	c-8.806,0-15.974,7.168-15.974,16.026v67.993l-3.021,3.021c-1.792-1.178-3.584-2.201-5.478-3.174l-16.947-16.998l-0.051-0.051
	c-0.563-0.512-1.331-0.87-2.202-0.87h-20.275c-1.792,0-3.226,1.433-3.226,3.226v8.96c-7.782,1.639-15.053,4.71-21.504,8.909
	l-6.349-6.349c-1.28-1.229-3.277-1.229-4.557,0l-14.336,14.336c-1.229,1.28-1.229,3.328,0,4.556l6.349,6.349
	c-4.198,6.451-7.27,13.722-8.909,21.505h-8.96c-1.792,0-3.226,1.433-3.226,3.226v20.275c0,1.075,0.512,1.997,1.28,2.56l16.64,16.64
	c0.87,1.69,1.792,3.328,2.816,4.915l-0.973,1.895l-5.018,5.018c-1.229,1.28-1.229,3.327,0,4.556l191.226,191.226
	C415.018,454.151,491.52,358.917,491.52,245.759c0-9.45-0.587-18.759-1.625-27.932L382.874,110.807L382.618,110.5z"/>
<path style="fill:#FFFFFF;" d="M179.792,202.054c-24.138,0-43.706,19.568-43.706,43.706c0,24.139,19.568,43.706,43.706,43.706
	c24.139,0,43.707-19.568,43.707-43.706C223.499,221.621,203.931,202.054,179.792,202.054z M179.792,272.103
	c-14.548,0-26.343-11.794-26.343-26.343c0-14.548,11.794-26.342,26.343-26.342c14.548,0,26.343,11.794,26.343,26.342
	C206.135,260.309,194.34,272.103,179.792,272.103z"/>
<circle style="fill:#D15241;" cx="179.814" cy="245.76" r="26.342"/>
<path style="fill:#E56353;" d="M251.409,232.404h-8.95c-1.651-7.786-4.735-15.032-8.932-21.492l6.349-6.35
	c1.255-1.256,1.255-3.292,0-4.548l-14.34-14.34c-1.255-1.256-3.292-1.256-4.548,0l-6.349,6.35
	c-6.46-4.198-13.707-7.281-21.493-8.933v-8.949c0-1.776-1.44-3.216-3.215-3.216h-20.28c-1.776,0-3.216,1.44-3.216,3.216v8.949
	c-7.786,1.652-15.031,4.735-21.491,8.933l-6.351-6.35c-1.256-1.256-3.292-1.256-4.548,0l-14.339,14.34
	c-1.256,1.256-1.256,3.292,0,4.548l6.35,6.35c-4.198,6.46-7.28,13.706-8.932,21.492h-8.95c-1.776,0-3.215,1.44-3.215,3.216v20.279
	c0,1.776,1.44,3.216,3.215,3.216h8.95c1.652,7.786,4.734,15.032,8.932,21.492l-6.35,6.35c-1.256,1.256-1.256,3.292,0,4.548
	l14.339,14.34c1.256,1.256,3.292,1.256,4.548,0l6.351-6.35c6.46,4.198,13.705,7.281,21.491,8.932v8.95
	c0,1.776,1.44,3.216,3.216,3.216h20.28c1.775,0,3.215-1.44,3.215-3.216v-8.95c7.786-1.652,15.033-4.734,21.493-8.932l6.349,6.35
	c1.256,1.256,3.293,1.256,4.548,0l14.34-14.34c1.255-1.256,1.255-3.292,0-4.548l-6.349-6.35c4.197-6.46,7.28-13.706,8.932-21.492
	h8.95c1.776,0,3.215-1.44,3.215-3.216V235.62C254.624,233.844,253.185,232.404,251.409,232.404z M179.792,294.378
	c-26.851,0-48.618-21.767-48.618-48.618c0-26.851,21.767-48.618,48.618-48.618c26.851,0,48.617,21.767,48.617,48.618
	C228.41,272.611,206.643,294.378,179.792,294.378z"/>
<path style="fill:#D15241;" d="M179.792,197.142c-26.851,0-48.618,21.767-48.618,48.618c0,26.851,21.767,48.618,48.618,48.618
	c26.851,0,48.617-21.767,48.617-48.618C228.41,218.909,206.643,197.142,179.792,197.142z M179.792,289.466
	c-24.138,0-43.706-19.568-43.706-43.706c0-24.138,19.568-43.706,43.706-43.706c24.139,0,43.707,19.568,43.707,43.706
	C223.499,269.898,203.931,289.466,179.792,289.466z"/>
<path style="fill:#D5D6DB;" d="M233.65,114.841h136.892c8.847,0,16.018,7.172,16.018,16.018v239.683
	c0,8.847-7.171,16.018-16.018,16.018H233.65c-8.847,0-16.018-7.172-16.018-16.018V130.859
	C217.631,122.013,224.803,114.841,233.65,114.841z"/>
<path style="fill:#EBF0F3;" d="M233.65,104.96h136.892c8.847,0,16.018,7.172,16.018,16.018v239.683
	c0,8.846-7.171,16.018-16.018,16.018H233.65c-8.847,0-16.018-7.172-16.018-16.018V120.978
	C217.631,112.132,224.803,104.96,233.65,104.96z"/>
<g>
	<path style="fill:#64798A;" d="M237.394,331.583V136.201c0-1.456,1.251-2.637,2.794-2.637h123.814c1.543,0,2.794,1.181,2.794,2.637
		v195.382c0,1.457-1.251,2.637-2.794,2.637H240.188C238.645,334.221,237.394,333.04,237.394,331.583z"/>
	<circle style="fill:#64798A;" cx="302.08" cy="356.403" r="13.399"/>
	<path style="fill:#64798A;" d="M276.803,115.721h50.586c2.468,0,4.47,2.001,4.47,4.471c0,2.469-2.002,4.471-4.47,4.471h-50.586
		c-2.469,0-4.471-2.002-4.471-4.471C272.332,117.722,274.334,115.721,276.803,115.721z"/>
</g>
<polygon style="fill:#3EA69B;" points="275.15,247.455 247.455,219.759 247.455,229.792 188.689,229.792 188.689,265.117 
	247.455,265.117 247.455,275.151 "/>
<polygon style="fill:#44C4A1;" points="275.15,244.065 247.455,216.369 247.455,226.402 188.689,226.402 188.689,261.728 
	247.455,261.728 247.455,271.761 "/>
<rect x="251.904" y="299.93" style="fill:#E56353;" width="26.317" height="26.317"/>
<rect x="288.922" y="299.93" style="fill:#FCD462;" width="26.317" height="26.317"/>
<rect x="325.99" y="299.93" style="fill:#44C4A1;" width="26.317" height="26.317"/>
<rect x="288.922" y="258.944" style="fill:#EBF0F3;" width="26.317" height="26.317"/>
<rect x="325.99" y="258.944" style="fill:#E56353;" width="26.317" height="26.317"/>
<rect x="288.922" y="217.979" style="fill:#FCD462;" width="26.317" height="26.317"/>
<rect x="325.99" y="217.979" style="fill:#27A2DB;" width="26.317" height="26.317"/>
<g>
</g>
<g>
</g>
<g>
</g>
<g>
</g>
<g>
</g>
<g>
</g>
<g>
</g>
<g>
</g>
<g>
</g>
<g>
</g>
<g>
</g>
<g>
</g>
<g>
</g>
<g>
</g>
<g>
</g>
</svg>
